<svg xmlns="http://www.w3.org/2000/svg" width="47.2" height="40" viewBox="0 0 47.2 40">
  <path id="Icon_awesome-quote-right" data-name="Icon awesome-quote-right" d="M42.775,2.25h-11.8A4.358,4.358,0,0,0,26.55,6.536V17.964a4.358,4.358,0,0,0,4.425,4.286H38.35v5.714a5.815,5.815,0,0,1-5.9,5.714h-.737A2.173,2.173,0,0,0,29.5,35.821v4.286a2.173,2.173,0,0,0,2.213,2.143h.737A14.519,14.519,0,0,0,47.2,27.964V6.536A4.358,4.358,0,0,0,42.775,2.25Zm-26.55,0H4.425A4.358,4.358,0,0,0,0,6.536V17.964A4.358,4.358,0,0,0,4.425,22.25H11.8v5.714a5.815,5.815,0,0,1-5.9,5.714H5.163A2.173,2.173,0,0,0,2.95,35.821v4.286A2.173,2.173,0,0,0,5.163,42.25H5.9A14.519,14.519,0,0,0,20.65,27.964V6.536A4.358,4.358,0,0,0,16.225,2.25Z" transform="translate(0 -2.25)" fill="rgba(255,255,255,0.7)"/>
</svg>
