<svg xmlns="http://www.w3.org/2000/svg" width="52" height="40" viewBox="0 0 52 40">
  <path id="Icon_awesome-quote-left" data-name="Icon awesome-quote-left" d="M47.125,22.25H39V16.536c0-3.152,2.915-5.714,6.5-5.714h.813A2.3,2.3,0,0,0,48.75,8.679V4.393A2.3,2.3,0,0,0,46.313,2.25H45.5c-8.978,0-16.25,6.393-16.25,14.286V37.964c0,2.366,2.184,4.286,4.875,4.286h13c2.691,0,4.875-1.92,4.875-4.286V26.536C52,24.17,49.816,22.25,47.125,22.25Zm-29.25,0H9.75V16.536c0-3.152,2.915-5.714,6.5-5.714h.813A2.3,2.3,0,0,0,19.5,8.679V4.393A2.3,2.3,0,0,0,17.063,2.25H16.25C7.272,2.25,0,8.643,0,16.536V37.964C0,40.33,2.184,42.25,4.875,42.25h13c2.691,0,4.875-1.92,4.875-4.286V26.536C22.75,24.17,20.566,22.25,17.875,22.25Z" transform="translate(0 -2.25)" fill="rgba(255,255,255,0.7)"/>
</svg>
