<svg xmlns="http://www.w3.org/2000/svg" width="12" height="16" viewBox="0 0 12 16">
  <path id="Icon_awesome-file-download" data-name="Icon awesome-file-download" d="M7,4.25V0H.75A.748.748,0,0,0,0,.75v14.5A.748.748,0,0,0,.75,16h10.5a.748.748,0,0,0,.75-.75V5H7.75A.752.752,0,0,1,7,4.25Zm2.389,6.605L6.376,13.846a.533.533,0,0,1-.751,0L2.612,10.855A.5.5,0,0,1,2.963,10H5V7.5A.5.5,0,0,1,5.5,7h1a.5.5,0,0,1,.5.5V10H9.037A.5.5,0,0,1,9.389,10.855Zm2.392-7.574L8.722.219A.749.749,0,0,0,8.191,0H8V4h4V3.809A.748.748,0,0,0,11.781,3.281Z" fill="#9e9e9e"/>
</svg>
